<?xml version="1.0" encoding="utf-8"?>
<!-- Generator: Adobe Illustrator 21.0.0, SVG Export Plug-In . SVG Version: 6.00 Build 0)  -->
<svg version="1.1" id="Layer_1" xmlns="http://www.w3.org/2000/svg" xmlns:xlink="http://www.w3.org/1999/xlink" x="0px" y="0px"
	 viewBox="0 0 460.3 460.3" style="enable-background:new 0 0 460.3 460.3;" xml:space="preserve">
<style type="text/css">
	.st0{fill:#71E2F0;}
	.st1{fill:#38C6D9;}
	.st2{fill:#366796;}
	.st3{fill:#5488A8;}
	.st4{fill:#121149;}
	.st5{fill:#C2FBFF;}
	.st6{fill:#FFFFFF;}
	.st7{fill:#BFEDDD;}
	.st8{fill:#80DBBB;}
</style>
<g>
	<path class="st0" d="M-323.8-81c-127,0-230,103-230,230c0,115.4,85,211,195.9,227.5l264-234C-97.4,18.5-199-81-323.8-81z"/>
	<path class="st1" d="M-93.8,149.3c0-2.3,0-4.6-0.1-6.9L-248.6-12.2l-150.7,150.7l67,67l-122.3,74.7l96.7,96.7
		c11.1,1.7,22.5,2.5,34.1,2.5C-196.8,379.3-93.8,276.4-93.8,149.3z"/>
	<path class="st2" d="M-324-43.4c58.9,0,106.6,47.7,106.6,106.6S-265.1,169.7-324,169.7l-37.4-106.6L-324-43.4z"/>
	<path class="st3" d="M-324-43.4v213.1c-58.9,0-106.6-47.7-106.6-106.6S-382.8-43.4-324-43.4z"/>
	<path class="st4" d="M-230.1,189.7c25.5,12.6,48.2,30.3,66.6,51.7c-32,55.3-91.8,92.6-160.3,92.6l-20-92.1l95.8-52.1L-230.1,189.7z
		"/>
	<path class="st2" d="M-417.5,189.7c-25.5,12.6-48.2,30.3-66.6,51.7c32,55.3,91.8,92.6,160.3,92.6V227.2l-75.8-37.5L-417.5,189.7z"
		/>
	<polygon class="st2" points="-276.3,189.7 -333.8,227.2 -323.8,265.5 -248,189.7 	"/>
	<polygon class="st3" points="-371.3,189.7 -323.8,227.2 -323.8,265.5 -399.6,189.7 	"/>
	<polygon class="st5" points="-323.8,189.7 -333.8,210 -323.8,237.2 -276.3,189.7 	"/>
	<polygon class="st6" points="-371.3,189.7 -323.8,237.2 -323.8,189.7 	"/>
</g>
<path class="st7" d="M229.5,460.3c-126,0-228.2-102.2-228.2-228.2C1.3,106.2,103.5,4,229.5,4c126,0,228.2,102.2,228.2,228.2"/>
<path class="st8" d="M457.6,232.2c0,126-102.2,228.2-228.2,228.2"/>
<ellipse class="st6" cx="229.5" cy="194.8" rx="88.8" ry="114.7"/>
<path class="st6" d="M229.5,460.3c71.9,0,135.9-33.3,177.8-85.2c-38.2-34.4-103.5-57.1-177.8-57.1c-74.2,0-139.6,22.7-177.8,57.1
	C93.5,427.1,157.6,460.3,229.5,460.3"/>
<path class="st6" d="M263.7,377.1h-68.4c-5.3,0-9.6-4.3-9.6-9.6V241.8c0-5.3,4.3-9.6,9.6-9.6h68.4c5.3,0,9.6,4.3,9.6,9.6v125.6
	C273.3,372.7,269,377.1,263.7,377.1z"/>
<ellipse transform="matrix(0.9447 -0.328 0.328 0.9447 -59.5399 56.9529)" class="st6" cx="139" cy="205" rx="14.8" ry="28.5"/>
<ellipse transform="matrix(0.328 -0.9447 0.9447 0.328 21.3585 439.9412)" class="st6" cx="319.9" cy="205" rx="28.5" ry="14.8"/>
<path class="st6" d="M151.8,199.6c-11.5-21-23.4-43.2-22.8-67.2c0.6-23.9,18.8-49.2,42.7-48.3c4.2,0.2,8.4,1.1,12.5,0.5
	c8.3-1.2,14.4-7.9,21.1-12.9c15.1-11.2,36.2-13.9,53.7-6.8c10.8,4.4,19.9,12.1,30.4,17.1c19.6,9.3,43.8,8.3,62.5-2.5
	c-3.9,7.4-10.6,13.3-18.3,16.3c7.2,2.3,15.1,2.1,22.2-0.6c-4.2,7.7-11.3,13.8-19.5,16.9c6.1,0.4,12.1,0.8,18.2,1.3
	c-5.2,7.3-12.6,13.1-21,16.3c4.8,0.2,9.5,0.3,14.3,0.5c-3.5,10.5-12.7,18.9-23.5,21.5c3.1,0,6.1,0.1,9.2,0.1
	c-10.1,14.5-20.1,29-30.2,43.5c-2.9,4.1-5.9,8.4-10.1,11.1c-3.5,2.3-7.7,3.3-11.8,4.2c-29.8,6.7-60.6,8.7-91,5.9
	c-10.4-0.9-21.3-2.7-29.5-9c-8.3-6.4-12.7-18.9-7-27.6"/>
<path class="st6" d="M172.3,339.7c0.7-12,2.2-24,4.5-35.9c6,6.8,16.1,7.7,25.1,8c13.7,0.6,27.4,1.1,41,1.7c1.6,9.3,2.7,20.3-4,26.9
	c-3.1,3.1-7.4,4.6-11.7,5.8c-9.2,2.6-18.8,3.9-28.3,4c-11.4,0.1-24.9-3.3-28.5-14.1c1.2-1,2.5-2,3.7-3"/>
<path class="st6" d="M286.7,339.7c-0.7-12-2.2-24-4.5-35.9c-6,6.8-16.1,7.7-25.1,8c-13.7,0.6-27.4,1.1-41,1.7
	c-1.6,9.3-2.7,20.3,4,26.9c3.1,3.1,7.4,4.6,11.7,5.8c9.2,2.6,18.8,3.9,28.3,4c11.4,0.1,24.9-3.3,28.5-14.1c-1.2-1-2.5-2-3.7-3"/>
</svg>
