<svg xmlns="http://www.w3.org/2000/svg" viewBox="0 0 324.25 107.95"><defs><style>.cls-1,.cls-3{fill:#2a3176;}.cls-2{fill:#fff;}.cls-3{font-size:26px;font-family:Constantia-Bold, Constantia;font-weight:700;}.cls-4{letter-spacing:-0.02em;}.cls-5{letter-spacing:-0.02em;}.cls-6{letter-spacing:-0.02em;}</style></defs><g id="Calque_2" data-name="Calque 2"><g id="Calque_1-2" data-name="Calque 1"><path class="cls-1" d="M254.8,89.62C137,100.53,50.68,107.89,40.7,108c-2.14,0-7.82,0-12-3.72a15,15,0,0,1-4.32-7.65Q12.2,65.4,0,34.23L245.18,17.31Q250,53.46,254.8,89.62Z"/><path class="cls-2" d="M248.31,85.55c-117.06,2-202.82,2.93-212.78,2.3-2.14-.13-7.81-.49-11.72-4.53A15,15,0,0,1,20,75.38Q10,43.45,0,11.51H245.76Z"/><path class="cls-1" d="M276.75,0a47.5,47.5,0,1,0,47.5,47.5A47.5,47.5,0,0,0,276.75,0Zm0,87.5a40,40,0,1,1,40-40A40,40,0,0,1,276.75,87.5Z"/><circle class="cls-2" cx="276.75" cy="47.5" r="40"/><path class="cls-1" d="M262.7,72h-5.51V24.53h5.51Zm3.45-47.48h13.72c9.78,0,16.43,5,16.43,12.69,0,6.61-5.17,13.44-16.84,13.44H266.15v-4.1h12.08c8.13,0,12.4-3.27,12.4-9.34s-5.17-8.66-11.91-8.66H266.15Zm18.9,28.79L295.48,72h-6.24L279.05,53.32Z"/><text class="cls-3" transform="translate(54.69 57.84)"><tspan class="cls-4">R</tspan><tspan x="17.94" y="0">e</tspan><tspan class="cls-4" x="31.92" y="0">t</tspan><tspan class="cls-5" x="41.65" y="0">e</tspan><tspan class="cls-6" x="55.01" y="0"> </tspan><tspan x="60.71" y="0">sucial</tspan><tspan class="cls-5" x="132.58" y="0">e</tspan></text></g></g></svg>