<?xml version="1.0" encoding="utf-8"?>
<!-- Generator: Adobe Illustrator 21.0.0, SVG Export Plug-In . SVG Version: 6.00 Build 0)  -->
<svg version="1.1"
	 id="svg12" inkscape:version="0.92.3 (2405546, 2018-03-11)" sodipodi:docname="logo.svg" xmlns:cc="http://creativecommons.org/ns#" xmlns:dc="http://purl.org/dc/elements/1.1/" xmlns:inkscape="http://www.inkscape.org/namespaces/inkscape" xmlns:rdf="http://www.w3.org/1999/02/22-rdf-syntax-ns#" xmlns:sodipodi="http://sodipodi.sourceforge.net/DTD/sodipodi-0.dtd" xmlns:svg="http://www.w3.org/2000/svg"
	 xmlns="http://www.w3.org/2000/svg" xmlns:xlink="http://www.w3.org/1999/xlink" x="0px" y="0px" viewBox="0 0 500 500"
	 style="enable-background:new 0 0 500 500;" xml:space="preserve">
<style type="text/css">
	.st0{display:none;}
	.st1{display:inline;}
	.st2{fill:url(#SVGID_1_);}
	.st3{fill:url(#SVGID_2_);}
	.st4{fill:url(#SVGID_3_);}
	.st5{opacity:0.4;fill:url(#SVGID_4_);}
	.st6{fill:#FFFFFF;}
	.st7{fill:url(#SVGID_5_);}
</style>
<sodipodi:namedview  bordercolor="#666666" borderopacity="1" gridtolerance="10" guidetolerance="10" id="namedview14" inkscape:current-layer="svg12" inkscape:cx="-184.11241" inkscape:cy="73.108543" inkscape:pageopacity="0" inkscape:pageshadow="2" inkscape:window-height="1008" inkscape:window-maximized="1" inkscape:window-width="1920" inkscape:window-x="0" inkscape:window-y="160" inkscape:zoom="0.83978042" objecttolerance="10" pagecolor="#ffffff" showgrid="false">
	</sodipodi:namedview>
<g class="st0">
	<path class="st1" d="M118.8,364.5v-13.3c3,0,4.6-1.2,4.6-3.5c0-2.1-1.2-3.2-3.5-3.2c-2.4,0-3.5,1.5-3.5,4.4v33.1h-15.1v-31.6
		c0-3.3,0.3-5.9,1-8c0.7-2.1,1.8-4,3.4-5.8c1.8-2,4-3.6,6.7-4.8c2.7-1.2,5.4-1.7,8.3-1.7c5.1,0,9.5,1.7,13,5.2
		c3.5,3.5,5.3,7.8,5.3,12.9c0,5-1.6,9-4.7,12.1c-2.9,2.8-7.2,4.3-13,4.3L118.8,364.5z"/>
	<path class="st1" d="M164.5,368.2v14.4c-1.1,0.2-2.2,0.3-3.1,0.3c-5.6,0-10.2-1.8-13.9-5.5c-3.7-3.7-5.6-8.3-5.6-13.8
		c0-5.4,1.9-9.9,5.6-13.7c3.7-3.7,8.3-5.6,13.7-5.6c6,0,10.7,1.8,14.2,5.3c3.5,3.5,5.2,8.3,5.2,14.3v18.2h-13.9v-17.2
		c0-2-0.5-3.5-1.4-4.7c-1-1.2-2.2-1.7-3.8-1.7c-1.5,0-2.7,0.5-3.8,1.6c-1.1,1.1-1.6,2.3-1.6,3.8c0,1.5,0.5,2.8,1.4,3.8
		c1,1,2.2,1.5,3.7,1.5C162.4,369.1,163.5,368.8,164.5,368.2z"/>
	<path class="st1" d="M206.2,344.3c5.2,0,9.7,1.9,13.5,5.7c3.8,3.8,5.6,8.3,5.6,13.6c0,5.3-1.9,9.9-5.7,13.7
		c-3.8,3.8-8.4,5.6-13.8,5.6c-5.4,0-10-1.9-13.8-5.7c-3.8-3.8-5.7-8.3-5.7-13.6c0-5.4,1.9-10,5.7-13.7
		C195.9,346.1,200.6,344.3,206.2,344.3z M205.9,358c-1.5,0-2.7,0.5-3.8,1.6c-1,1.1-1.6,2.4-1.6,4c0,1.5,0.5,2.8,1.6,3.9
		c1.1,1.1,2.3,1.6,3.8,1.6c1.5,0,2.8-0.5,3.8-1.6c1.1-1.1,1.6-2.4,1.6-3.9c0-1.6-0.5-2.9-1.6-4C208.6,358.5,207.4,358,205.9,358z"/>
	<path class="st1" d="M245,331.4v50.7h-13.9v-50.7H245z"/>
	<path class="st1" d="M267,345v37h-13.9v-37H267z M260.1,328.5c1.9,0,3.5,0.7,4.9,2c1.4,1.3,2.1,2.9,2.1,4.7c0,1.9-0.6,3.5-1.9,4.8
		c-1.3,1.2-3,1.9-5,1.9s-3.7-0.6-5-1.9c-1.3-1.2-1.9-2.8-1.9-4.8c0-1.8,0.7-3.4,2.1-4.7C256.6,329.2,258.3,328.5,260.1,328.5z"/>
	<path class="st1" d="M276.2,331.4h18.4c10.9,0,16.4,4.3,16.4,12.9c0,4.3-1.9,7.8-5.6,10.6c5.4,2.4,8.1,6.5,8.1,12.6
		c0,4.6-1.6,8.3-4.8,11.1c-1.6,1.3-3.2,2.2-5,2.7c-1.8,0.5-4.2,0.8-7.2,0.8h-2.9v-13h2.6c1.5,0,2.6-0.2,3.2-0.6
		c0.6-0.4,0.9-1.1,0.9-2c0-1.6-1.3-2.5-3.8-2.5h-2.9v-13.5c2.8,0,4.2-1,4.2-2.9c0-1.8-1.3-2.6-3.8-2.6h-2.8v37.1h-15.1V331.4z"/>
	<path class="st1" d="M336.2,344.3c5.2,0,9.7,1.9,13.5,5.7c3.8,3.8,5.6,8.3,5.6,13.6c0,5.3-1.9,9.9-5.7,13.7
		c-3.8,3.8-8.4,5.6-13.8,5.6c-5.4,0-10-1.9-13.8-5.7c-3.8-3.8-5.7-8.3-5.7-13.6c0-5.4,1.9-10,5.7-13.7
		C325.9,346.1,330.6,344.3,336.2,344.3z M335.8,358c-1.5,0-2.7,0.5-3.8,1.6c-1,1.1-1.6,2.4-1.6,4c0,1.5,0.5,2.8,1.6,3.9
		c1.1,1.1,2.3,1.6,3.8,1.6c1.5,0,2.8-0.5,3.8-1.6c1.1-1.1,1.6-2.4,1.6-3.9c0-1.6-0.5-2.9-1.6-4C338.6,358.5,337.3,358,335.8,358z"/>
	<path class="st1" d="M378.6,344.3c5.2,0,9.7,1.9,13.5,5.7c3.8,3.8,5.6,8.3,5.6,13.6c0,5.3-1.9,9.9-5.7,13.7
		c-3.8,3.8-8.4,5.6-13.8,5.6c-5.4,0-10-1.9-13.8-5.7c-3.8-3.8-5.7-8.3-5.7-13.6c0-5.4,1.9-10,5.7-13.7
		C368.3,346.1,373,344.3,378.6,344.3z M378.3,358c-1.5,0-2.7,0.5-3.8,1.6c-1,1.1-1.6,2.4-1.6,4c0,1.5,0.5,2.8,1.6,3.9
		c1.1,1.1,2.3,1.6,3.8,1.6c1.5,0,2.8-0.5,3.8-1.6c1.1-1.1,1.6-2.4,1.6-3.9c0-1.6-0.5-2.9-1.6-4C381,358.5,379.8,358,378.3,358z"/>
	<path class="st1" d="M417.4,331.4v50.7h-13.9v-50.7H417.4z M438.7,345l-6.8,13.5l10.1,23.5h-15.4l-8.7-24.2l6.3-12.8H438.7z"/>
</g>
<g>
	<g>
		<g>
			<g>
				<g>
					<linearGradient id="SVGID_1_" gradientUnits="userSpaceOnUse" x1="212.9072" y1="68.8788" x2="212.9072" y2="445.5477">
						<stop  offset="0" style="stop-color:#0CEAC6"/>
						<stop  offset="1" style="stop-color:#1A4E6F"/>
					</linearGradient>
					<path class="st2" d="M251.3,72.4v119.9c0,31.2-25.3,56.6-56.6,56.6h-20.2v-99.7c0-21.2,8.6-40.4,22.5-54.3
						C210.9,81,230.1,72.4,251.3,72.4z"/>
					<linearGradient id="SVGID_2_" gradientUnits="userSpaceOnUse" x1="212.907" y1="68.8783" x2="212.907" y2="445.5475">
						<stop  offset="0" style="stop-color:#0CEAC6"/>
						<stop  offset="1" style="stop-color:#1A4E6F"/>
					</linearGradient>
					<path class="st3" d="M174.5,339.8h76.7v24.9c0,42.4-34.3,76.7-76.7,76.7V339.8z"/>
					<linearGradient id="SVGID_3_" gradientUnits="userSpaceOnUse" x1="258.46" y1="438.3209" x2="258.46" y2="71.7083">
						<stop  offset="0" style="stop-color:#1A4E6F"/>
						<stop  offset="1" style="stop-color:#0CEAC6"/>
					</linearGradient>
					<path class="st4" d="M400,202.5c0,71.9-66.6,130.1-148.7,130.1v0.1H117c0-42.4,34.3-76.7,76.7-76.7h57.6
						c38.6,0,69.9-23.9,69.9-53.5c0-23.2-19.3-42.9-46.3-50.3c-2.7-0.7-5.5-1.4-8.4-1.8c-4.9-0.8-10-1.3-15.2-1.3V72.4
						c8,0,15.9,0.5,23.6,1.6C345.8,84,400,137.7,400,202.5z"/>
				</g>
				<linearGradient id="SVGID_4_" gradientUnits="userSpaceOnUse" x1="251.2793" y1="112.314" x2="274.9028" y2="112.314">
					<stop  offset="0" style="stop-color:#1F1E21"/>
					<stop  offset="0.5182" style="stop-color:#1F1E21;stop-opacity:0"/>
				</linearGradient>
				<path class="st5" d="M274.9,74.1v78.1c-2.7-0.7-5.5-1.4-8.4-1.8c-4.9-0.8-10-1.3-15.2-1.3V72.4C259.3,72.4,267.2,73,274.9,74.1z
					"/>
			</g>
			<g>
				<path class="st6" d="M251.3,339.8v24.9c0,22.5-9.7,42.7-25.1,56.7c12.4-13.7,19.9-31.7,19.9-51.6V345h-71.6v-5.1H251.3z"/>
				<path class="st6" d="M251.3,256c21.2,0,40.2-7.2,53-18.7c-12.5,14.4-33.9,23.8-58.2,23.8h-57.6c-19.9,0-38,7.6-51.6,19.9
					c14-15.4,34.3-25.1,56.7-25.1H251.3z"/>
			</g>
		</g>
	</g>
	<linearGradient id="SVGID_5_" gradientUnits="userSpaceOnUse" x1="0" y1="250" x2="500" y2="250">
		<stop  offset="0" style="stop-color:#1A4E6F"/>
		<stop  offset="1" style="stop-color:#0CEAC6"/>
	</linearGradient>
	<path class="st7" d="M250,0C111.9,0,0,111.9,0,250s111.9,250,250,250s250-111.9,250-250S388.1,0,250,0z M250,486.3
		C118.9,486.3,12.6,380,12.6,248.9C12.6,117.8,118.9,11.5,250,11.5s237.4,106.3,237.4,237.4C487.4,380,381.1,486.3,250,486.3z"/>
</g>
</svg>
