<?xml version="1.0" encoding="utf-8"?>
<!-- Generator: Adobe Illustrator 21.0.0, SVG Export Plug-In . SVG Version: 6.00 Build 0)  -->
<svg version="1.1"
	 id="svg12" inkscape:version="0.92.3 (2405546, 2018-03-11)" sodipodi:docname="logo.svg" xmlns:cc="http://creativecommons.org/ns#" xmlns:dc="http://purl.org/dc/elements/1.1/" xmlns:inkscape="http://www.inkscape.org/namespaces/inkscape" xmlns:rdf="http://www.w3.org/1999/02/22-rdf-syntax-ns#" xmlns:sodipodi="http://sodipodi.sourceforge.net/DTD/sodipodi-0.dtd" xmlns:svg="http://www.w3.org/2000/svg"
	 xmlns="http://www.w3.org/2000/svg" xmlns:xlink="http://www.w3.org/1999/xlink" x="0px" y="0px" viewBox="0 0 485 78"
	 style="enable-background:new 0 0 485 78;" xml:space="preserve">
<style type="text/css">
	.st0{display:none;}
	.st1{display:inline;}
	.st2{fill:url(#SVGID_1_);}
	.st3{fill:url(#SVGID_2_);}
	.st4{fill:url(#SVGID_3_);}
	.st5{opacity:0.4;fill:url(#SVGID_4_);}
	.st6{fill:#FFFFFF;}
</style>
<sodipodi:namedview  bordercolor="#666666" borderopacity="1" gridtolerance="10" guidetolerance="10" id="namedview14" inkscape:current-layer="svg12" inkscape:cx="-184.11241" inkscape:cy="73.108543" inkscape:pageopacity="0" inkscape:pageshadow="2" inkscape:window-height="1008" inkscape:window-maximized="1" inkscape:window-width="1920" inkscape:window-x="0" inkscape:window-y="160" inkscape:zoom="0.83978042" objecttolerance="10" pagecolor="#ffffff" showgrid="false">
	</sodipodi:namedview>
<g class="st0">
	<path class="st1" d="M111.3,45V31.7c3,0,4.6-1.2,4.6-3.5c0-2.1-1.2-3.2-3.5-3.2c-2.4,0-3.5,1.5-3.5,4.4v33.1H93.7V31
		c0-3.3,0.3-5.9,1-8c0.7-2.1,1.8-4,3.4-5.8c1.8-2,4-3.6,6.7-4.8c2.7-1.2,5.4-1.7,8.3-1.7c5.1,0,9.5,1.7,13,5.2
		c3.5,3.5,5.3,7.8,5.3,12.9c0,5-1.6,9-4.7,12.1c-2.9,2.8-7.2,4.3-13,4.3L111.3,45z"/>
	<path class="st1" d="M157,48.7V63c-1.1,0.2-2.2,0.3-3.1,0.3c-5.6,0-10.2-1.8-13.9-5.5c-3.7-3.7-5.6-8.3-5.6-13.8
		c0-5.4,1.9-9.9,5.6-13.7c3.7-3.7,8.3-5.6,13.7-5.6c6,0,10.7,1.8,14.2,5.3c3.5,3.5,5.2,8.3,5.2,14.3v18.2h-13.9V45.4
		c0-2-0.5-3.5-1.4-4.7c-1-1.2-2.2-1.7-3.8-1.7c-1.5,0-2.7,0.5-3.8,1.6c-1.1,1.1-1.6,2.3-1.6,3.8c0,1.5,0.5,2.8,1.4,3.8
		c1,1,2.2,1.5,3.7,1.5C154.9,49.6,156,49.3,157,48.7z"/>
	<path class="st1" d="M198.7,24.8c5.2,0,9.7,1.9,13.5,5.7c3.8,3.8,5.6,8.3,5.6,13.6c0,5.3-1.9,9.9-5.7,13.7
		c-3.8,3.8-8.4,5.6-13.8,5.6c-5.4,0-10-1.9-13.8-5.7c-3.8-3.8-5.7-8.3-5.7-13.6c0-5.4,1.9-10,5.7-13.7
		C188.4,26.6,193.1,24.8,198.7,24.8z M198.4,38.5c-1.5,0-2.7,0.5-3.8,1.6c-1,1.1-1.6,2.4-1.6,4c0,1.5,0.5,2.8,1.6,3.9
		c1.1,1.1,2.3,1.6,3.8,1.6c1.5,0,2.8-0.5,3.8-1.6c1.1-1.1,1.6-2.4,1.6-3.9c0-1.6-0.5-2.9-1.6-4C201.1,39,199.9,38.5,198.4,38.5z"/>
	<path class="st1" d="M237.5,11.9v50.7h-13.9V11.9H237.5z"/>
	<path class="st1" d="M259.5,25.5v37h-13.9v-37H259.5z M252.6,9c1.9,0,3.5,0.7,4.9,2c1.4,1.3,2.1,2.9,2.1,4.7c0,1.9-0.6,3.5-1.9,4.8
		c-1.3,1.2-3,1.9-5,1.9s-3.7-0.6-5-1.9c-1.3-1.2-1.9-2.8-1.9-4.8c0-1.8,0.7-3.4,2.1-4.7C249.1,9.7,250.8,9,252.6,9z"/>
	<path class="st1" d="M268.7,11.9h18.4c10.9,0,16.4,4.3,16.4,12.9c0,4.3-1.9,7.8-5.6,10.6c5.4,2.4,8.1,6.5,8.1,12.6
		c0,4.6-1.6,8.3-4.8,11.1c-1.6,1.3-3.2,2.2-5,2.7c-1.8,0.5-4.2,0.8-7.2,0.8h-2.9v-13h2.6c1.5,0,2.6-0.2,3.2-0.6
		c0.6-0.4,0.9-1.1,0.9-2c0-1.6-1.3-2.5-3.8-2.5h-2.9V31c2.8,0,4.2-1,4.2-2.9c0-1.8-1.3-2.6-3.8-2.6h-2.8v37.1h-15.1V11.9z"/>
	<path class="st1" d="M328.7,24.8c5.2,0,9.7,1.9,13.5,5.7c3.8,3.8,5.6,8.3,5.6,13.6c0,5.3-1.9,9.9-5.7,13.7
		c-3.8,3.8-8.4,5.6-13.8,5.6c-5.4,0-10-1.9-13.8-5.7c-3.8-3.8-5.7-8.3-5.7-13.6c0-5.4,1.9-10,5.7-13.7
		C318.4,26.6,323.1,24.8,328.7,24.8z M328.3,38.5c-1.5,0-2.7,0.5-3.8,1.6c-1,1.1-1.6,2.4-1.6,4c0,1.5,0.5,2.8,1.6,3.9
		c1.1,1.1,2.3,1.6,3.8,1.6c1.5,0,2.8-0.5,3.8-1.6c1.1-1.1,1.6-2.4,1.6-3.9c0-1.6-0.5-2.9-1.6-4C331.1,39,329.8,38.5,328.3,38.5z"/>
	<path class="st1" d="M371.1,24.8c5.2,0,9.7,1.9,13.5,5.7c3.8,3.8,5.6,8.3,5.6,13.6c0,5.3-1.9,9.9-5.7,13.7
		c-3.8,3.8-8.4,5.6-13.8,5.6c-5.4,0-10-1.9-13.8-5.7c-3.8-3.8-5.7-8.3-5.7-13.6c0-5.4,1.9-10,5.7-13.7
		C360.8,26.6,365.5,24.8,371.1,24.8z M370.8,38.5c-1.5,0-2.7,0.5-3.8,1.6c-1,1.1-1.6,2.4-1.6,4c0,1.5,0.5,2.8,1.6,3.9
		c1.1,1.1,2.3,1.6,3.8,1.6c1.5,0,2.8-0.5,3.8-1.6c1.1-1.1,1.6-2.4,1.6-3.9c0-1.6-0.5-2.9-1.6-4C373.5,39,372.3,38.5,370.8,38.5z"/>
	<path class="st1" d="M409.9,11.9v50.7H396V11.9H409.9z M431.2,25.5L424.4,39l10.1,23.5h-15.4l-8.7-24.2l6.3-12.8H431.2z"/>
</g>
<g>
	<g>
		<g>
			<g>
				<linearGradient id="SVGID_1_" gradientUnits="userSpaceOnUse" x1="22.7361" y1="-0.7534" x2="22.7361" y2="78.8677">
					<stop  offset="0" style="stop-color:#0CEAC6"/>
					<stop  offset="1" style="stop-color:#1A4E6F"/>
				</linearGradient>
				<path class="st2" d="M30.8,0v25.3c0,6.6-5.4,12-12,12h-4.3V16.2c0-4.5,1.8-8.5,4.8-11.5C22.3,1.8,26.4,0,30.8,0z"/>
				<linearGradient id="SVGID_2_" gradientUnits="userSpaceOnUse" x1="22.7361" y1="-0.7535" x2="22.7361" y2="78.8677">
					<stop  offset="0" style="stop-color:#0CEAC6"/>
					<stop  offset="1" style="stop-color:#1A4E6F"/>
				</linearGradient>
				<path class="st3" d="M14.6,56.5h16.2v5.3c0,9-7.3,16.2-16.2,16.2V56.5z"/>
				<linearGradient id="SVGID_3_" gradientUnits="userSpaceOnUse" x1="32.3652" y1="77.3401" x2="32.3652" y2="-0.1553">
					<stop  offset="0" style="stop-color:#1A4E6F"/>
					<stop  offset="1" style="stop-color:#0CEAC6"/>
				</linearGradient>
				<path class="st4" d="M62.3,27.5C62.3,42.7,48.2,55,30.8,55v0H2.5c0-9,7.3-16.2,16.2-16.2h12.2c8.2,0,14.8-5.1,14.8-11.3
					c0-4.9-4.1-9.1-9.8-10.6c-0.6-0.2-1.2-0.3-1.8-0.4c-1-0.2-2.1-0.3-3.2-0.3V0c1.7,0,3.4,0.1,5,0.3C50.8,2.4,62.3,13.8,62.3,27.5z
					"/>
			</g>
			<linearGradient id="SVGID_4_" gradientUnits="userSpaceOnUse" x1="30.8473" y1="8.428" x2="35.8409" y2="8.428">
				<stop  offset="0" style="stop-color:#1F1E21"/>
				<stop  offset="0.5182" style="stop-color:#1F1E21;stop-opacity:0"/>
			</linearGradient>
			<path class="st5" d="M35.8,0.3v16.5c-0.6-0.2-1.2-0.3-1.8-0.4c-1-0.2-2.1-0.3-3.2-0.3V0C32.5,0,34.2,0.1,35.8,0.3z"/>
		</g>
		<g>
			<path class="st6" d="M30.8,56.5v5.3c0,4.8-2,9-5.3,12c2.6-2.9,4.2-6.7,4.2-10.9v-5.3H14.6v-1.1H30.8z"/>
			<path class="st6" d="M30.8,38.8c4.5,0,8.5-1.5,11.2-3.9c-2.7,3-7.2,5-12.3,5H17.6c-4.2,0-8,1.6-10.9,4.2c3-3.3,7.2-5.3,12-5.3
				H30.8z"/>
		</g>
	</g>
</g>
</svg>
